<svg id="sprite" xmlns="http://www.w3.org/2000/svg" xmlns:xlink="http://www.w3.org/1999/xlink" viewBox="0 0 70 24"><defs><style>.cls-1{fill:#e1c34b;}.cls-2{fill:#fff;}.cls-3{fill:#333;}</style><symbol id="radio" data-name="radio" viewBox="0 0 22 22"><path class="cls-1" d="M11,22A11,11,0,1,1,22,11,11,11,0,0,1,11,22ZM11,2a9,9,0,1,0,9,9A9,9,0,0,0,11,2Z"/></symbol><symbol id="radio_hover" data-name="radio_hover" viewBox="0 0 20 20"><circle class="cls-2" cx="10" cy="10" r="10"/></symbol><symbol id="radio_active" data-name="radio_active" viewBox="0 0 22.81 20"><circle class="cls-2" cx="10" cy="10" r="10"/><path class="cls-3" d="M20.92,2.21l1.89,2L10.29,15.79l-.1-.09L7.57,12.89,3.71,8.76,5.68,7l4.58,5.09Z"/></symbol></defs><use width="22" height="22" transform="translate(1 1)" xlink:href="#radio"/><use width="20" height="20" transform="translate(25 2)" xlink:href="#radio_hover"/><use width="22.81" height="20" transform="translate(46.81 2)" xlink:href="#radio_active"/></svg>